<?xml version="1.0" standalone="no"?>
<!DOCTYPE svg PUBLIC "-//W3C//DTD SVG 20010904//EN"
 "http://www.w3.org/TR/2001/REC-SVG-20010904/DTD/svg10.dtd">
<svg version="1.0" xmlns="http://www.w3.org/2000/svg"
 width="512.000000pt" height="512.000000pt" viewBox="0 0 512.000000 512.000000"
 preserveAspectRatio="xMidYMid meet">

<g transform="translate(0.000000,512.000000) scale(0.100000,-0.100000)"
fill="#fd7e14" stroke="none">
<path d="M1954 4695 c-27 -13 -59 -40 -71 -58 -22 -31 -23 -44 -23 -195 l0
-162 60 0 60 0 0 145 c0 132 2 147 20 165 19 19 33 20 425 20 392 0 406 -1
425 -20 18 -18 20 -33 20 -165 l0 -145 60 0 60 0 0 162 c0 151 -1 164 -22 195
-13 18 -45 45 -72 58 l-50 25 -421 0 -421 0 -50 -25z"/>
<path d="M777 4160 c-43 -13 -92 -55 -111 -93 -14 -30 -16 -78 -16 -334 l0
-298 123 -47 c67 -26 277 -106 467 -178 190 -73 461 -177 603 -231 143 -54
261 -99 263 -99 2 0 4 36 4 79 0 116 -15 111 315 111 330 0 315 5 315 -111 0
-43 2 -79 4 -79 2 0 120 45 263 99 142 54 413 158 603 231 190 72 400 152 468
178 l122 47 0 300 c0 341 -1 344 -79 400 l-43 30 -1636 2 c-901 1 -1650 -2
-1665 -7z m1712 -396 c37 -31 53 -81 40 -128 -15 -54 -60 -86 -121 -86 -44 0
-54 4 -84 34 -30 30 -34 40 -34 86 0 46 4 56 34 86 30 30 40 34 84 34 40 0 57
-6 81 -26z"/>
<path d="M2367 3692 c-22 -24 -21 -45 1 -65 24 -22 55 -21 75 1 22 24 21 45
-1 65 -24 22 -55 21 -75 -1z"/>
<path d="M650 2656 c0 -440 4 -664 11 -683 15 -40 48 -73 94 -94 38 -18 106
-19 1670 -19 1564 0 1632 1 1670 19 46 21 79 54 94 94 12 30 16 1337 5 1337
-6 0 -188 -69 -954 -362 -201 -77 -395 -151 -432 -165 l-68 -25 0 -110 c0 -61
-5 -129 -12 -150 -17 -56 -88 -132 -156 -165 -50 -24 -69 -28 -147 -28 -78 0
-97 4 -147 28 -68 33 -139 109 -156 165 -7 21 -12 89 -12 150 l0 110 -67 25
c-38 14 -232 88 -433 165 -766 293 -948 362 -954 362 -3 0 -6 -294 -6 -654z"/>
<path d="M2240 2905 l0 -55 185 0 185 0 0 55 0 55 -185 0 -185 0 0 -55z"/>
<path d="M2240 2634 c0 -90 3 -112 21 -140 34 -55 83 -79 164 -79 81 0 130 24
164 79 18 28 21 50 21 140 l0 106 -185 0 -185 0 0 -106z m250 -59 l0 -55 -65
0 -65 0 0 55 0 55 65 0 65 0 0 -55z"/>
<path d="M4347 1689 c-46 -27 -47 -35 -47 -596 0 -402 3 -534 13 -553 27 -54
60 -60 315 -60 l232 0 0 610 0 610 -247 0 c-150 0 -255 -5 -266 -11z m313
-824 c36 -19 50 -43 50 -87 0 -42 -20 -72 -59 -88 -62 -25 -131 20 -131 85 0
46 13 71 48 89 35 19 56 20 92 1z"/>
<path d="M3757 1504 c-86 -20 -163 -62 -232 -125 -107 -97 -193 -148 -320
-190 -66 -22 -88 -23 -405 -27 -370 -4 -380 -6 -406 -67 -16 -39 -8 -69 26
-100 21 -19 40 -20 416 -25 l394 -5 27 -27 c38 -39 38 -97 0 -135 l-27 -28
-408 0 c-394 0 -409 1 -453 21 -25 12 -221 140 -435 284 -214 145 -407 271
-429 281 -22 10 -61 19 -86 19 -45 0 -134 -25 -144 -40 -4 -7 1041 -875 1154
-959 121 -89 266 -134 431 -135 202 -1 291 35 550 219 268 191 357 225 598
225 l102 0 0 415 0 415 -147 -1 c-90 0 -171 -6 -206 -15z"/>
</g>
</svg>
