<?xml version="1.0" standalone="no"?>
<!DOCTYPE svg PUBLIC "-//W3C//DTD SVG 20010904//EN"
 "http://www.w3.org/TR/2001/REC-SVG-20010904/DTD/svg10.dtd">
<svg version="1.0" xmlns="http://www.w3.org/2000/svg"
 width="512.000000pt" height="512.000000pt" viewBox="0 0 512.000000 512.000000"
 preserveAspectRatio="xMidYMid meet">

<g transform="translate(0.000000,512.000000) scale(0.100000,-0.100000)"
fill="#fd7e14" stroke="none">
<path d="M1679 4787 c-433 -183 -796 -340 -807 -351 -29 -25 -36 -67 -19 -108
16 -38 15 -38 382 -192 l200 -84 5 -409 c3 -224 9 -416 13 -425 16 -33 57 -48
154 -58 255 -28 536 -105 774 -211 48 -22 98 -39 113 -39 14 0 70 20 123 44
248 111 506 179 807 211 47 5 65 13 88 35 l28 28 0 410 0 410 103 43 c56 23
142 60 191 81 49 21 93 38 98 38 4 0 8 -121 8 -270 l0 -270 -38 -19 c-53 -27
-115 -98 -138 -157 -17 -44 -19 -78 -19 -362 l0 -314 33 -29 32 -29 226 0
c238 0 270 5 294 49 13 26 13 613 0 663 -18 64 -70 130 -132 167 l-58 34 0
359 c0 388 -2 402 -53 425 -189 86 -1581 663 -1598 662 -13 0 -378 -150 -810
-332z m1461 -147 c344 -145 628 -266 632 -269 11 -10 -1269 -544 -1291 -538
-54 14 -1270 532 -1263 538 16 16 1268 538 1282 535 8 -2 296 -122 640 -266z
m973 -1191 l27 -29 0 -230 0 -230 -100 0 -100 0 0 220 c0 246 5 270 63 295 42
18 76 10 110 -26z"/>
<path d="M4533 2691 c-28 -11 -68 -30 -87 -43 -20 -14 -232 -206 -472 -429
-241 -222 -454 -419 -475 -437 l-38 -33 6 63 c15 168 -86 343 -241 414 -84 38
-146 44 -495 44 l-325 0 -90 44 c-166 81 -328 118 -521 118 -313 1 -601 -118
-825 -342 -73 -73 -197 -237 -212 -281 -3 -10 -17 -3 -46 23 -45 40 -79 54
-115 44 -12 -3 -136 -119 -274 -259 l-253 -253 0 -44 0 -45 633 -633 c607
-608 635 -634 676 -639 l43 -6 259 259 c254 255 259 260 259 300 0 27 -7 51
-21 68 l-20 26 28 11 c50 19 226 66 308 83 153 31 232 37 580 46 317 8 362 11
471 34 283 60 554 190 766 367 70 59 861 819 909 874 15 17 39 55 55 85 27 51
29 63 29 165 0 104 -2 114 -33 177 -38 78 -106 144 -190 185 -74 36 -209 43
-289 14z m236 -214 c71 -47 101 -147 70 -236 -14 -39 -830 -830 -961 -932
-152 -117 -338 -212 -510 -259 -170 -46 -214 -51 -568 -60 -461 -11 -618 -34
-923 -137 l-138 -47 -419 419 -419 418 34 66 c124 247 371 439 645 502 86 20
221 28 313 18 131 -13 235 -44 355 -106 l106 -53 353 0 c236 0 370 -4 400 -12
87 -21 163 -119 163 -208 0 -99 -84 -200 -178 -214 -21 -3 -158 -15 -307 -26
-148 -12 -278 -23 -287 -26 -29 -9 -68 -63 -68 -96 0 -35 56 -98 88 -98 51 0
695 52 756 61 80 11 162 42 241 90 31 18 272 234 536 479 264 245 500 455 522
468 57 32 138 27 196 -11z m-3224 -2077 l-160 -160 -540 540 -540 540 160 160
160 160 540 -540 540 -540 -160 -160z"/>
</g>
</svg>
