<?xml version="1.0" standalone="no"?>
<!DOCTYPE svg PUBLIC "-//W3C//DTD SVG 20010904//EN"
 "http://www.w3.org/TR/2001/REC-SVG-20010904/DTD/svg10.dtd">
<svg version="1.0" xmlns="http://www.w3.org/2000/svg"
 width="512.000000pt" height="512.000000pt" viewBox="0 0 512.000000 512.000000"
 preserveAspectRatio="xMidYMid meet">

<g transform="translate(0.000000,512.000000) scale(0.100000,-0.100000)"
fill="#fd7e14" stroke="none">
<path d="M2165 4800 c-165 -42 -628 -161 -1030 -264 -401 -103 -749 -193 -772
-202 -39 -14 -73 -58 -73 -94 0 -21 30 -69 49 -80 26 -14 2114 -550 2142 -550
13 0 460 113 995 250 535 138 978 250 984 250 7 0 10 -188 10 -585 l0 -585
-37 -19 c-46 -23 -104 -83 -129 -131 -10 -21 -19 -66 -22 -113 -4 -71 -2 -82
27 -142 31 -63 78 -110 134 -136 38 -17 34 -42 -8 -58 -41 -14 -101 -82 -110
-122 -4 -16 -14 -131 -24 -256 -20 -263 -16 -301 40 -359 50 -52 115 -67 258
-62 81 3 125 9 147 21 41 21 92 80 100 115 3 15 7 32 9 37 7 27 -35 496 -48
527 -16 39 -77 95 -112 104 -33 8 -32 38 2 53 55 25 102 73 132 133 72 143 17
317 -121 389 l-38 19 0 661 c0 742 4 705 -72 733 -49 17 -2108 547 -2123 545
-5 0 -145 -36 -310 -79z m572 -291 c131 -33 252 -67 269 -75 73 -34 69 -143
-6 -174 -28 -12 -54 -7 -274 49 l-244 63 -238 -61 c-132 -34 -247 -61 -258
-61 -10 0 -33 15 -52 34 -43 43 -45 83 -6 126 24 27 52 36 272 94 135 35 257
64 272 65 15 0 134 -26 265 -60z"/>
<path d="M872 3308 l3 -503 27 -58 c73 -155 172 -213 451 -266 59 -12 109 -21
111 -21 2 0 6 40 9 88 7 97 42 229 86 327 118 259 353 463 636 551 49 15 85
29 80 30 -75 21 -1384 354 -1393 354 -10 0 -12 -108 -10 -502z"/>
<path d="M3373 3632 c-376 -97 -679 -179 -675 -183 4 -3 28 -11 53 -18 80 -19
205 -77 292 -134 92 -61 222 -191 280 -280 92 -139 154 -313 165 -466 7 -82 8
-86 32 -89 35 -4 289 61 355 92 69 31 141 104 180 182 l30 59 3 508 c3 481 2
507 -15 506 -10 0 -325 -80 -700 -177z"/>
<path d="M2315 3255 c-164 -35 -306 -116 -427 -243 -192 -202 -266 -477 -202
-752 22 -93 104 -254 167 -330 97 -115 226 -202 382 -257 74 -25 91 -27 240
-28 140 0 169 3 235 23 278 87 482 296 562 577 32 114 32 306 0 419 -57 200
-176 364 -344 473 -91 60 -177 96 -281 117 -91 19 -248 20 -332 1z m231 -269
c19 -19 34 -43 34 -54 0 -12 18 -30 49 -50 121 -75 166 -223 80 -267 -59 -31
-108 -15 -139 45 -11 21 -30 46 -42 54 -73 51 -165 -33 -124 -113 21 -39 25
-41 102 -52 113 -16 187 -69 231 -166 60 -131 11 -286 -113 -359 -24 -14 -44
-32 -44 -39 0 -48 -52 -95 -104 -95 -32 0 -77 39 -91 78 -6 19 -29 43 -60 64
-69 46 -107 104 -113 171 -4 50 -2 55 28 80 17 15 43 27 56 27 39 0 80 -26 94
-60 30 -72 101 -91 151 -41 65 65 12 151 -93 151 -45 0 -126 40 -167 81 -118
118 -104 328 28 424 25 19 51 35 57 35 7 0 15 15 18 33 6 33 36 69 66 80 36
13 63 6 96 -27z"/>
<path d="M260 1090 l0 -610 233 0 c254 0 287 6 314 60 10 19 13 151 13 553 0
564 0 571 -49 597 -12 6 -116 10 -265 10 l-246 0 0 -610z m290 -225 c36 -19
50 -43 50 -87 0 -42 -20 -72 -59 -88 -62 -25 -131 20 -131 85 0 46 13 71 48
89 35 19 56 20 92 1z"/>
<path d="M1010 1105 l0 -415 103 0 c240 0 329 -34 597 -225 259 -184 348 -220
550 -219 165 1 310 46 431 135 113 84 1158 952 1154 959 -10 15 -99 40 -144
40 -25 0 -64 -9 -86 -19 -22 -10 -215 -136 -429 -281 -214 -144 -410 -272
-435 -284 -44 -20 -59 -21 -453 -21 l-408 0 -27 27 c-38 39 -38 97 0 136 l27
27 394 5 c376 5 395 6 416 25 34 31 42 61 26 100 -26 61 -36 63 -406 67 -317
4 -339 5 -405 27 -127 42 -213 93 -320 190 -118 107 -223 141 -442 141 l-143
0 0 -415z"/>
</g>
</svg>
