<?xml version="1.0" standalone="no"?>
<svg xmlns:xlink="http://www.w3.org/1999/xlink" id="wave" style="transform:rotate(180deg); transition: 0.3s" viewBox="0 0 1440 100" version="1.1" xmlns="http://www.w3.org/2000/svg"><defs><linearGradient id="sw-gradient-0" x1="0" x2="0" y1="1" y2="0"><stop stop-color="rgba(24, 65, 109, 1)" offset="0%"/><stop stop-color="rgba(255, 255, 255, 1)" offset="100%"/></linearGradient></defs><path style="transform:translate(0, 0px); opacity:1" fill="url(#sw-gradient-0)" d="M0,30L48,28.3C96,27,192,23,288,28.3C384,33,480,47,576,56.7C672,67,768,73,864,68.3C960,63,1056,47,1152,41.7C1248,37,1344,43,1440,43.3C1536,43,1632,37,1728,30C1824,23,1920,17,2016,13.3C2112,10,2208,10,2304,16.7C2400,23,2496,37,2592,46.7C2688,57,2784,63,2880,66.7C2976,70,3072,70,3168,66.7C3264,63,3360,57,3456,60C3552,63,3648,77,3744,78.3C3840,80,3936,70,4032,56.7C4128,43,4224,27,4320,16.7C4416,7,4512,3,4608,6.7C4704,10,4800,20,4896,30C4992,40,5088,50,5184,55C5280,60,5376,60,5472,56.7C5568,53,5664,47,5760,50C5856,53,5952,67,6048,66.7C6144,67,6240,53,6336,53.3C6432,53,6528,67,6624,73.3C6720,80,6816,80,6864,80L6912,80L6912,100L6864,100C6816,100,6720,100,6624,100C6528,100,6432,100,6336,100C6240,100,6144,100,6048,100C5952,100,5856,100,5760,100C5664,100,5568,100,5472,100C5376,100,5280,100,5184,100C5088,100,4992,100,4896,100C4800,100,4704,100,4608,100C4512,100,4416,100,4320,100C4224,100,4128,100,4032,100C3936,100,3840,100,3744,100C3648,100,3552,100,3456,100C3360,100,3264,100,3168,100C3072,100,2976,100,2880,100C2784,100,2688,100,2592,100C2496,100,2400,100,2304,100C2208,100,2112,100,2016,100C1920,100,1824,100,1728,100C1632,100,1536,100,1440,100C1344,100,1248,100,1152,100C1056,100,960,100,864,100C768,100,672,100,576,100C480,100,384,100,288,100C192,100,96,100,48,100L0,100Z"/></svg>